# xmcd
#
# Track frame offsets:
#	183
#	12195
#	24398
#	35015
#	47150
#	62688
#	75850
#	88060
#	101650
#	114218
#	128133
#	139748
#	152040
#	163133
#	175525
#	188080
#	201695
#	214208
#	228880
#	241043
#	252180
#	269775
#	280458
#	294943
#
# Disc length: 4121 seconds
#
# Revision: 1
# Processed by: cddbd v1.4PL0 Copyright (c) Steve Scherf et al.
# Submitted via: EasyCDDAExtractor 5.1.0
#
DISCID=4e101718
DTITLE=Little Milton - we´re gonna make it
DYEAR=1900
DGENRE=blues
TTITLE0=losing hand
TTITLE1=believe in me
TTITLE2=ain´t no big deal on you
TTITLE3=life is like that
TTITLE4=blind man
TTITLE5=stand by me
TTITLE6=we´re gonna make it
TTITLE7=who´s cheating who
TTITLE8=you´re welcome to the club
TTITLE9=i´m gonna move to the outskirts of town
TTITLE10=can´t hold back the tears
TTITLE11=grits ain´t groceries
TTITLE12=just a little bit
TTITLE13=poor man
TTITLE14=baby i love you
TTITLE15=let´s get together
TTITLE16=your precious love
TTITLE17=Kansas City
TTITLE18=good to me as i am to you
TTITLE19=i play dirty
TTITLE20=things i used to do
TTITLE21=i don´t know
TTITLE22=blues get out of my shoulder
TTITLE23=if walls could talk
EXTD=
EXTT0=
EXTT1=
EXTT2=
EXTT3=
EXTT4=
EXTT5=
EXTT6=
EXTT7=
EXTT8=
EXTT9=
EXTT10=
EXTT11=
EXTT12=
EXTT13=
EXTT14=
EXTT15=
EXTT16=
EXTT17=
EXTT18=
EXTT19=
EXTT20=
EXTT21=
EXTT22=
EXTT23=
PLAYORDER=
